<?xml version="1.0" encoding="UTF-8" standalone="no"?>
<!-- Created with Inkscape (http://www.inkscape.org/) -->

<svg
   xmlns:dc="http://purl.org/dc/elements/1.1/"
   xmlns:cc="http://creativecommons.org/ns#"
   xmlns:rdf="http://www.w3.org/1999/02/22-rdf-syntax-ns#"
   xmlns:svg="http://www.w3.org/2000/svg"
   xmlns="http://www.w3.org/2000/svg"
   version="1.0"
   width="688"
   height="688"
   id="svg2781">
  <defs
     id="defs2784" />
  <path
     d="m 257.06809,681.80997 c -2.73564,-0.27347 -6.79621,-1.21204 -11.99284,-2.77204 -64.86136,-19.47127 -122.48614,-57.57954 -165.599266,-109.51364 -10.94246,-13.18126 -21.26067,-27.7686 -24.03526,-33.97978 -10.00785,-22.40343 -7.80438,-47.89407 5.92175,-68.50524 6.2057,-9.31857 16.35798,-18.58417 25.34331,-23.13017 1.46626,-0.7417 67.003706,-24.73669 69.082346,-25.29278 0.6364,-0.17027 0.581,0.20219 -0.38613,2.59658 -0.82832,2.05076 -1.17557,3.84835 -1.30349,6.74809 l -0.17439,3.95266 3.48122,7.17537 c 10.74322,22.14358 23.79277,40.41307 41.02219,57.43167 7.78016,7.68493 9.64163,9.35135 17.02608,15.24216 28.0771,22.39799 64.34904,37.97043 98.82999,42.43018 3.05373,0.39498 6.22261,0.92843 7.04193,1.18531 3.47325,1.08929 9.49466,-0.92905 13.57114,-4.54909 l 2.17959,-1.93543 -0.28335,5.98448 c -0.15584,3.29152 -0.689,19.07666 -1.18482,35.07823 -0.77996,25.17251 -1.02682,29.75241 -1.83149,33.97977 -4.86811,25.57492 -23.03941,46.4619 -47.48586,54.58228 -5.73534,1.90512 -9.86874,2.76314 -16.20302,3.36353 -5.51534,0.52281 -7.15929,0.51365 -13.01963,-0.0721 z m 160.28091,0.053 c -4.99692,-0.48098 -11.69089,-1.94248 -16.39727,-3.58007 -4.27385,-1.487 -12.3671,-5.42877 -15.52973,-7.56355 -13.57406,-9.1629 -23.62509,-22.24108 -28.64495,-37.27215 -2.768,-8.2883 -2.86055,-9.32698 -4.07275,-45.71154 -0.6145,-18.44446 -1.11555,-34.57694 -1.11344,-35.84962 l 0.004,-2.3142 2.89825,2.19368 c 3.2678,2.47345 8.15073,4.24963 10.55087,3.83819 0.787,-0.135 3.72953,-0.56945 6.53897,-0.96542 46.77222,-6.59305 88.368,-27.56146 120.82532,-60.90792 15.14103,-15.55586 26.50221,-31.64763 37.14298,-52.60862 l 4.37939,-8.62685 -0.0103,-4.4418 c -0.009,-3.89574 -0.16004,-4.76416 -1.2279,-7.06351 -0.66968,-1.44196 -1.16472,-2.66303 -1.10014,-2.71364 0.24727,-0.19366 68.62333,24.98603 70.51993,25.96927 3.19205,1.65479 8.14084,5.12499 12.33128,8.64703 11.38912,9.57235 19.94362,24.07319 23.29256,39.48328 0.8395,3.86294 0.9862,5.92335 1.00224,14.07529 0.0211,10.71956 -0.56597,14.50702 -3.59906,23.22074 -2.16754,6.22727 -3.60345,8.90514 -8.74625,16.31129 -9.45343,13.61374 -19.00032,25.42989 -31.22236,38.64357 -40.62544,43.922 -94.93601,77.47474 -153.10295,94.58614 -10.02377,2.94875 -15.50963,3.53702 -24.71853,2.65041 z M 312.85529,543.71922 c -32.10443,-5.16668 -62.73253,-18.40277 -88.74017,-38.34944 -6.40893,-4.91537 -10.78248,-8.74589 -17.48031,-15.31023 -15.74128,-15.42729 -27.0977,-30.84455 -37.74645,-51.24363 -2.82275,-5.40735 -2.9608,-5.81558 -2.9608,-8.75591 0,-10.88723 10.52966,-18.80777 20.90688,-15.72649 6.89187,2.04643 11.94017,8.40931 11.94213,15.0521 9.7e-4,3.26293 -1.03545,5.71548 -3.22918,7.64163 -1.48037,1.29977 -3.99482,2.34736 -5.63411,2.34736 -1.4769,0 -4.04372,-0.97953 -5.26944,-2.01091 -2.58958,-2.17896 -2.47276,-1.20177 0.4736,3.96206 23.83384,41.77138 64.69812,73.12933 111.39897,85.48388 7.05619,1.86675 14.20875,3.33568 14.55506,2.98946 0.1588,-0.15889 -0.55186,-1.02978 -1.57924,-1.93556 -6.32109,-5.57255 -2.85257,-14.51296 6.15156,-15.85617 6.63742,-0.99005 14.13354,3.31749 17.21538,9.89284 1.0148,2.1651 1.19043,3.12966 1.19043,6.53749 0,3.40783 -0.17563,4.37226 -1.19043,6.53748 -2.48101,5.2934 -8.36018,9.72926 -12.76114,9.62829 -1.1214,-0.0256 -4.38063,-0.42357 -7.24274,-0.88425 z m 51.95935,0.25862 c -4.25424,-1.56261 -7.91655,-5.33262 -9.70273,-9.98788 -1.35688,-3.5364 -1.07367,-9.06861 0.64399,-12.57939 3.23062,-6.60307 10.80678,-10.51254 17.86763,-9.21994 3.54619,0.64914 5.87165,2.33041 7.42362,5.36739 1.03969,2.03455 1.19871,2.77155 0.95642,4.43314 -0.393,2.69508 -1.16983,4.06403 -3.37902,5.95504 -1.02582,0.87806 -1.7436,1.71802 -1.59505,1.86651 0.6611,0.66115 16.55103,-3.34485 26.31214,-6.63351 41.55759,-14.00129 77.27813,-43.37691 99.45641,-81.79045 3.115,-5.39523 3.24487,-6.2123 0.639,-4.01961 -3.49889,2.94417 -8.61136,2.3861 -11.84112,-1.29235 -4.9765,-5.66795 -0.86459,-17.05708 7.56327,-20.94898 2.42491,-1.11973 3.31385,-1.28851 6.78796,-1.28851 3.55081,0 4.32031,0.15356 6.88478,1.37451 5.44734,2.59337 9.19324,7.88973 9.6558,13.65235 0.2165,2.6973 0.15174,2.90407 -2.68004,8.5552 -28.44781,56.77064 -82.85276,96.66214 -145.00635,106.3236 -6.70779,1.04264 -7.71818,1.06615 -9.98671,0.23288 z M 258.31696,494.92987 c -5.78145,-1.06727 -10.71924,-3.3196 -15.9986,-7.29762 -13.30676,-10.02686 -16.71939,-27.56913 -8.11924,-41.73624 0.8645,-1.42413 1.3978,-2.7421 1.18512,-2.92895 -0.2127,-0.18685 -1.48938,-0.77486 -2.83705,-1.30683 -9.39218,-3.7069 -16.06372,-13.10132 -16.74231,-23.57526 -0.59186,-9.13555 3.78356,-18.54333 11.14908,-23.97209 1.24808,-0.91989 2.71818,-1.91143 3.2669,-2.20334 1.02155,-0.54347 85.20197,-28.04045 85.84414,-28.04045 0.19531,0 0.85363,0.84948 1.46297,1.88779 0.60933,1.03819 1.96272,2.8578 3.00754,4.04349 1.51168,1.71554 1.80554,2.30517 1.4388,2.88712 -0.25349,0.40229 -8.48377,11.79945 -18.28954,25.32694 -19.66534,27.12923 -19.19226,26.30041 -16.5303,28.96233 1.56596,1.56594 3.53712,1.71109 5.38347,0.39634 0.69671,-0.49608 9.31035,-11.99607 19.14142,-25.55549 13.82289,-19.06515 18.03179,-24.58263 18.56782,-24.34035 1.11107,0.50227 6.79836,2.31346 8.13317,2.59015 l 1.22149,0.25329 -0.0155,43.63207 c -0.0174,49.07804 0.04,48.07153 -3.10456,54.41746 -3.26311,6.58525 -8.86713,11.55778 -15.68711,13.91926 -4.58693,1.58834 -8.36376,1.97478 -12.65281,1.2947 -6.78739,-1.07643 -12.15556,-3.98904 -16.90532,-9.17255 l -2.74284,-2.9933 -0.75483,1.07853 c -3.68211,5.26159 -10.66208,9.98553 -17.29376,11.70392 -3.27275,0.848 -9.46681,1.22046 -12.12816,0.72908 z m 162.79187,-0.0515 c -6.85477,-1.06788 -12.23159,-3.91776 -17.74885,-9.40753 l -3.97927,-3.95946 -0.87913,1.25411 c -2.84936,4.06489 -8.43261,8.01966 -13.78066,9.76119 -4.57196,1.48873 -11.41515,1.67718 -15.58112,0.42913 -8.72493,-2.6139 -15.69222,-9.18109 -18.82252,-17.74149 l -1.16556,-3.18744 0,-45.93898 0,-45.93897 2.26542,-0.51031 c 1.246,-0.28064 3.4019,-0.97161 4.79089,-1.53537 1.38901,-0.56377 2.59385,-0.94885 2.67743,-0.8558 0.0836,0.0929 8.0951,11.16256 17.80338,24.59897 9.70829,13.43642 18.17763,24.87863 18.82077,25.42705 2.75694,2.35108 6.73815,0.47021 6.70486,-3.16765 -0.0155,-1.69104 -1.29031,-3.58069 -17.1143,-25.36864 -9.40366,-12.94789 -17.61455,-24.28553 -18.24642,-25.19478 l -1.14887,-1.65318 1.7668,-2.12228 c 0.97174,-1.16737 2.34424,-3.03364 3.05,-4.14755 l 1.2832,-2.02515 42.54598,13.87409 c 23.40031,7.63061 43.41777,14.38489 44.48331,15.00929 8.41761,4.93306 13.69912,14.0003 13.73634,23.58256 0.0195,5.02562 -0.65178,7.89703 -2.95184,12.62666 -2.4739,5.08699 -6.77383,9.42374 -11.87558,11.97726 -2.00517,1.00366 -3.9106,1.82481 -4.23437,1.82481 -1.18716,0 -1.07185,0.89192 0.41606,3.21788 3.40459,5.32235 4.88797,10.50153 4.86684,16.99224 -0.0327,10.04728 -4.61272,18.82794 -13.1053,25.12475 -7.95192,5.89601 -16.41743,8.32591 -24.57749,7.05459 z M 63.322054,424.86264 c -0.61075,-0.10023 -2.80944,-0.4644 -4.88598,-0.80939 -19.31844,-3.20873 -37.636398,-15.58679 -47.982432,-32.42299 -4.3685564,-7.10892 -7.9435244,-16.29508 -9.59388238,-24.65193 -1.478461,-7.48645 -0.98265,-34.73175 0.96998198,-53.30156 C 7.4206446,260.5065 25.313298,209.36063 54.085544,164.3043 c 8.05231,-12.60958 18.3877,-26.58687 22.49456,-30.42098 22.0582,-20.59298 53.353916,-25.40119 80.241776,-12.32807 5.26593,2.56045 10.83278,6.31289 15.74874,10.61598 3.41861,2.99243 7.13699,7.53026 25.84218,31.53676 12.01693,15.42283 21.99955,28.24129 22.18359,28.48555 0.2174,0.28857 -1.16952,0.44423 -3.95871,0.44423 -3.05626,0 -5.10456,0.25565 -7.1088,0.88747 -2.64421,0.8334 -3.23982,1.30621 -9.79151,7.77317 -10.17456,10.04282 -17.79685,18.98521 -25.17799,29.53883 -19.22821,27.49253 -31.38927,59.05094 -35.68792,92.61148 -2.6855,20.96643 -1.92119,46.4421 1.94345,64.77817 0.37783,1.79263 0.57764,3.43629 0.44404,3.65246 -0.13362,0.21618 0.30178,1.54775 0.96753,2.95914 1.41828,3.00679 5.32035,7.0822 8.06954,8.42813 l 1.91357,0.93684 -1.46939,0.47158 c -0.80816,0.25948 -16.16062,4.69288 -34.11659,9.85226 -20.309966,5.83575 -34.241816,9.61306 -36.866906,9.99555 -3.88121,0.56549 -13.80856,0.77078 -16.43465,0.33979 z m 545.452706,-0.24191 c -2.56643,-0.32829 -41.79731,-11.27627 -69.89386,-19.50493 l -3.04476,-0.8918 1.93432,-0.94711 c 4.25431,-2.08306 8.88915,-8.15194 9.03949,-11.83645 0.0356,-0.87274 0.49687,-4.08531 1.02509,-7.13911 4.86621,-28.13437 3.81475,-57.01552 -3.08057,-84.6162 -7.89738,-31.61187 -23.07198,-60.90891 -44.28667,-85.50269 -5.69336,-6.60022 -18.3329,-19.02753 -20.26268,-19.92255 -2.96196,-1.37377 -6.32383,-1.96983 -9.83752,-1.74437 l -3.28373,0.21073 1.47836,-1.82097 c 0.81308,-1.00144 10.5311,-13.41402 21.59554,-27.58336 11.06443,-14.16934 21.34212,-27.02677 22.83927,-28.57205 3.22653,-3.33024 8.69744,-7.67095 12.71611,-10.08897 23.84042,-14.34542 53.2424,-13.76619 76.17683,1.50048 6.64511,4.42349 10.11792,7.71228 15.27836,14.46904 32.64357,42.74088 54.44706,91.18363 64.69145,143.7305 4.25342,21.81727 6.09334,41.25698 6.13803,64.85018 0.0304,16.05812 -0.22169,18.26776 -3.08062,27.00413 -10.53789,32.20248 -42.74478,52.67704 -76.14244,48.4055 z m -446.5135,-28.78365 c -2.43555,-0.61078 -5.65686,-2.36295 -7.45949,-4.05771 -3.15291,-2.96422 -3.8326,-4.2979 -4.60322,-9.0326 -5.5015,-33.80171 -2.70681,-66.86011 8.29857,-98.16374 6.58335,-18.72572 16.7493,-37.75759 28.47138,-53.30156 7.23223,-9.59042 20.53377,-24.0899 23.47695,-25.59137 5.79222,-2.95494 13.92227,-1.49653 18.78943,3.37058 6.62804,6.62806 6.48075,17.22957 -0.32785,23.59828 -5.32568,4.98156 -11.69156,5.4154 -15.62218,1.06466 -2.09937,-2.32373 -2.74948,-4.82454 -2.05775,-7.91546 0.29157,-1.30287 0.39051,-2.50316 0.21988,-2.66749 -0.40713,-0.39201 -4.49364,4.07925 -10.28203,11.25004 -21.73899,26.93062 -35.26287,59.3447 -39.47356,94.61027 -1.37753,11.53724 -1.29226,32.69064 0.17277,42.86339 0.32657,2.26743 0.93449,2.29614 1.69633,0.0802 1.09276,-3.17866 4.90024,-5.835 8.36349,-5.835 3.67903,0 7.28045,2.74135 9.28085,7.06474 0.75382,1.62917 0.93529,2.88317 0.93529,6.46312 0,4.06056 -0.11437,4.66528 -1.33253,7.04569 -1.73661,3.39335 -5.64623,7.0291 -8.84566,8.22617 -2.89187,1.082 -7.3756,1.51088 -9.70067,0.92781 z m 357.203,0.009 c -4.58656,-0.7766 -9.50674,-4.47188 -11.68948,-8.7793 -4.67388,-9.22341 0.1154,-20.92523 8.58141,-20.96705 3.87206,-0.0193 7.23014,2.52135 8.47958,6.41523 0.47193,1.47078 0.61745,1.61717 0.88285,0.88834 1.66594,-4.57533 2.12477,-32.72071 0.72024,-44.18025 -4.49186,-36.64961 -17.95277,-68.40823 -40.85365,-96.38706 -6.8123,-8.32282 -10.37032,-11.63611 -8.80396,-8.19834 0.81427,1.78732 0.62767,5.35044 -0.38412,7.33364 -1.07546,2.10805 -3.91687,4.28168 -6.14315,4.69931 -3.95612,0.7422 -9.73637,-1.98778 -12.66964,-5.98362 -8.00977,-10.91148 -0.59468,-26.19461 12.82844,-26.44061 5.70691,-0.10456 6.44393,0.31369 13.87356,7.87278 15.00438,15.26592 26.06358,30.75124 35.63059,49.89051 16.29304,32.59512 23.03884,67.89187 19.97643,104.52452 -0.58071,6.94633 -2.50752,19.46162 -3.25023,21.11109 -1.56098,3.4671 -5.91781,6.83198 -10.33593,7.98278 -2.7565,0.71794 -3.71076,0.74838 -6.84294,0.21803 z M 217.08274,381.84346 c -7.41452,-1.60937 -15.05289,-7.61292 -18.42433,-14.48091 -4.22279,-8.60235 -3.81894,-18.72462 1.06733,-26.75182 0.91269,-1.49937 1.5268,-2.86176 1.36469,-3.02757 -0.16211,-0.16569 -1.35726,-0.7177 -2.65589,-1.22652 -4.76832,-1.86837 -10.05413,-5.97756 -13.19771,-10.25999 -5.66917,-7.72292 -7.51114,-18.10702 -4.85344,-27.36124 3.64748,-12.70077 11.63216,-20.78601 23.5867,-23.88374 3.50748,-0.90888 11.10614,-0.93016 14.52112,-0.0406 1.4069,0.3664 2.74812,0.66622 2.9805,0.66622 0.23238,0 0.4225,-0.86272 0.4225,-1.91724 0,-3.57117 0.93719,-7.17364 2.9548,-11.35831 6.46937,-13.41761 22.35163,-19.15981 35.87143,-12.96917 3.31721,1.51904 7.61517,4.72294 9.59675,7.15408 0.81403,0.99859 12.79627,17.34565 26.62721,36.32665 l 25.14715,34.511 -1.79912,2.2209 c -0.98951,1.22145 -2.36365,3.18509 -3.05363,4.3636 -0.70719,1.20796 -1.49343,2.05113 -1.80211,1.93271 -5.5115,-2.11498 -57.80001,-18.5145 -59.02768,-18.51314 -2.36177,0.003 -3.86639,1.55889 -3.86639,3.99944 0,1.29816 0.28542,2.09679 0.99941,2.7963 0.70464,0.69047 9.66152,3.7835 30.36941,10.48742 l 29.37001,9.50813 -0.10633,5.34623 -0.10632,5.34611 -40.59026,13.24548 c -22.32465,7.28513 -41.95254,13.54296 -43.61753,13.90639 -3.68282,0.80382 -8.01549,0.7964 -11.77827,-0.0204 z m 240.44882,-0.418 c -2.19869,-0.614 -21.67265,-6.89274 -43.27547,-13.95291 l -39.27787,-12.83664 -0.0783,-5.26642 -0.0783,-5.26642 29.35107,-9.54983 c 18.59735,-6.05094 29.75829,-9.89879 30.46249,-10.50215 0.84603,-0.72487 1.1114,-1.38181 1.1114,-2.75113 0,-2.4987 -1.50047,-4.06972 -3.88701,-4.06972 -1.07047,0 -12.99057,3.63341 -30.60079,9.32772 -15.866,5.1303 -28.98376,9.3276 -29.15059,9.32735 -0.16681,-2.5e-4 -0.88264,-1.03188 -1.59072,-2.29255 -0.70807,-1.2608 -1.95733,-3.03363 -2.77612,-3.94004 -0.81879,-0.90628 -1.4887,-1.80129 -1.4887,-1.98901 0,-0.18759 11.90775,-16.69773 26.46169,-36.68921 23.43364,-32.18862 26.77561,-36.58576 29.20482,-38.42579 7.11383,-5.3883 16.21318,-7.17066 24.37063,-4.77368 11.18279,3.28582 19.90329,14.29667 19.90329,25.13056 0,2.9026 -0.12694,2.83887 3.77553,1.89658 5.76718,-1.39258 14.24048,-0.58628 19.81966,1.88581 5.64569,2.50168 11.12802,7.3673 14.17012,12.57605 2.60348,4.45777 4.88354,11.647 5.18896,16.36104 0.41682,6.43366 -1.38309,13.28607 -4.95754,18.87384 -3.25072,5.0818 -9.7095,10.2778 -15.02806,12.08999 -1.15074,0.39214 -2.09222,0.94749 -2.09222,1.23432 0,0.28671 0.49348,1.24768 1.09663,2.13527 2.99688,4.41026 4.43273,9.54934 4.38472,15.69333 -0.0563,7.20519 -2.60795,13.18597 -7.95872,18.65458 -4.97255,5.08192 -11.04955,7.73826 -18.39908,8.04242 -4.00411,0.16569 -5.22941,0.035 -8.66151,-0.92336 z m -119.21235,-9.81897 c -7.48919,-2.01413 -14.05389,-8.43418 -16.27623,-15.91755 -0.86517,-2.91335 -0.83668,-9.24221 0.0553,-12.28253 2.09144,-7.12896 8.175,-13.33557 15.21843,-15.52628 3.3536,-1.04301 8.95462,-1.16131 12.33766,-0.26047 7.6416,2.03467 14.35494,8.79489 16.35343,16.4677 1.94292,7.45935 -0.41107,15.63393 -6.15649,21.37935 -5.77025,5.77017 -14.08748,8.14179 -21.53208,6.13978 z M 303.84538,286.13808 C 287.4081,263.49707 277.57481,249.55963 276.6791,247.6331 c -1.75329,-3.77076 -2.37167,-6.79189 -2.37167,-11.58673 0,-17.41853 16.16344,-30.20172 33.53541,-26.52203 1.70999,0.36219 3.22944,0.65855 3.37655,0.65855 0.14711,0 0.38749,-1.54912 0.53418,-3.44235 1.02252,-13.19748 10.38415,-24.31363 23.33803,-27.71193 4.7665,-1.2504 13.16386,-1.24335 17.96299,0.0151 11.06641,2.90185 19.73567,11.5683 22.53981,22.53237 0.4809,1.88037 0.87437,4.58609 0.87437,6.01282 0,1.42661 0.14991,2.59386 0.33313,2.59362 0.18323,-2.5e-4 1.83224,-0.31988 3.66448,-0.71028 9.10077,-1.93964 18.75666,0.86842 25.35463,7.37336 5.36223,5.28658 8.14962,11.90227 8.14086,19.32178 -0.006,4.94086 -0.73804,8.0303 -2.9421,12.41383 -0.74342,1.47858 -12.8497,18.5463 -26.90282,37.92835 -21.97448,30.30714 -25.68153,35.20914 -26.48266,35.01895 -0.51234,-0.12164 -2.39981,-0.73874 -4.19438,-1.37142 -1.79457,-0.63257 -3.63829,-1.15018 -4.09717,-1.15018 -0.80733,0 -0.8383,-1.01962 -0.95686,-31.50112 l -0.12253,-31.50124 -1.05518,-1.12295 c -1.29145,-1.37451 -3.03896,-1.80785 -4.71684,-1.16997 -2.52634,0.96048 -2.41591,-0.56809 -2.43117,33.64753 l -0.0141,31.64775 -1.22149,0.006 c -0.67182,0.003 -2.92048,0.60027 -4.99702,1.32663 -2.07654,0.72636 -3.87547,1.3124 -3.99762,1.30237 -0.12214,-0.0101 -11.81517,-15.98684 -25.98451,-35.50377 z M 257.5069,205.7339 c -5.04993,-1.05662 -9.50436,-4.50318 -11.87451,-9.18764 -1.7716,-3.5015 -2.05,-8.97147 -0.64615,-12.69534 2.07887,-5.51451 4.88715,-7.53446 19.32715,-13.90242 19.52162,-8.60879 38.88898,-13.70877 60.85262,-16.02434 9.06297,-0.95553 28.7578,-0.94823 37.90006,0.014 21.56994,2.27028 41.19719,7.45898 60.76281,16.0632 9.08344,3.9946 15.48474,7.51318 16.77442,9.22043 5.26681,6.97194 4.73553,15.76671 -1.31817,21.82037 -6.25904,6.25907 -15.9636,6.62237 -22.39663,0.83847 -2.44107,-2.19467 -3.70126,-4.27723 -4.17792,-6.90426 -0.90603,-4.99344 3.64605,-10.07536 9.04866,-10.10196 1.68347,-0.008 1.88471,-0.0994 1.33254,-0.60349 -0.35774,-0.32643 -2.74917,-1.51125 -5.3143,-2.63271 -41.09829,-17.96831 -87.19553,-20.34464 -129.92258,-6.69773 -9.23462,2.94961 -23.48461,8.85342 -23.05338,9.55107 0.12681,0.20516 1.02471,0.37308 1.99534,0.37308 6.87388,0 11.21284,7.63804 7.5869,13.35561 -3.57799,5.64185 -10.68992,8.80814 -16.87686,7.51368 z m -44.72563,-51.33358 c -10.98945,-16.23297 -20.72729,-31.06036 -21.63963,-32.94963 -1.94487,-4.02753 -4.41479,-11.37663 -5.40898,-16.09426 -3.25848,-15.462053 -1.05752,-31.938539 6.20038,-46.416731 5.14785,-10.269019 13.82822,-20.203443 23.02875,-26.355722 6.21375,-4.155013 7.55379,-4.810419 15.81792,-7.736436 28.54112,-10.105322 58.34953,-16.2070028 90.83285,-18.5931628 9.3099,-0.683891 35.29195,-0.690264 44.86215,-0.01101 31.58707,2.241928 62.584,8.5335388 90.39058,18.3470418 7.87487,2.779198 10.08702,3.866461 16.26573,7.99456 12.18088,8.138075 22.40652,21.71432 27.21059,36.126683 2.68049,8.041309 3.33717,12.411717 3.33717,22.208911 0,9.827636 -0.62923,13.987066 -3.34277,22.097546 -2.82587,8.44619 -4.5281,11.27342 -25.05849,41.61917 l -19.91457,29.43539 -0.55337,-2.71278 c -0.30434,-1.49194 -1.10369,-3.72386 -1.77631,-4.95966 -1.19574,-2.19702 -5.3927,-6.88878 -5.79885,-6.48267 -0.11266,0.11261 -1.43977,-0.4962 -2.9491,-1.3531 -11.28885,-6.40904 -27.11227,-13.03228 -41.05484,-17.18441 -45.84198,-13.65185 -95.58193,-10.94885 -139.79553,7.59695 -6.08622,2.5529 -21.91571,10.40291 -23.72229,11.76406 -2.66048,2.00448 -6.25752,8.38989 -6.27656,11.14201 -0.004,0.5405 -0.15693,1.21885 -0.34042,1.50729 -0.20518,0.32272 -8.02437,-10.83575 -20.31441,-28.99004 z"
     id="path2792"
     style="fill:#fff" />
</svg>
